<svg xmlns="http://www.w3.org/2000/svg" width="20" height="14.167" viewBox="0 0 20 14.167">
  <g id="Filter-icon" transform="translate(-214.316 1.998)">
    <path id="Union_2" data-name="Union 2" d="M7.083,12.167a1.084,1.084,0,0,1,0-2.167h7.834a1.084,1.084,0,1,1,0,2.167Zm-2-6A1.084,1.084,0,0,1,5.083,4H17.916a1.084,1.084,0,1,1,0,2.167Zm-3-6A1.083,1.083,0,0,1,1-.916,1.084,1.084,0,0,1,2.084-2H19.917A1.083,1.083,0,0,1,21-.916,1.083,1.083,0,0,1,19.917.167Z" transform="translate(213.316 0.001)" fill="#78849e"/>
  </g>
</svg>
