<svg xmlns="http://www.w3.org/2000/svg" width="20.999" height="16.001" viewBox="0 0 20.999 16.001">
  <g id="sort-icon" transform="translate(-213.316 2.999)">
    <path id="Union_2" data-name="Union 2" d="M3.452,13l-.031,0-.038-.006-.034-.008-.032-.008-.033-.012-.031-.012-.031-.014-.032-.016L3.162,12.9l-.031-.019L3.1,12.858l-.025-.019c-.018-.015-.035-.031-.051-.047h0L.206,9.948a.718.718,0,0,1,0-1.006.7.7,0,0,1,1,0l1.616,1.631V-.572L1.2,1.058a.7.7,0,0,1-1,0,.717.717,0,0,1,0-1.005L3.024-2.792a.5.5,0,0,1,.051-.047c.008-.007.017-.013.025-.019a.243.243,0,0,1,.031-.023c.01-.007.021-.013.031-.019l.028-.017.032-.015.031-.014.031-.012.033-.012.032-.009.034-.008.038-.006.031,0a.722.722,0,0,1,.14,0l.031,0,.037.006.035.008.032.009.033.012.032.012.031.014.031.015.029.017c.01.006.021.012.031.019a.332.332,0,0,1,.031.023l.024.019a.5.5,0,0,1,.051.047h0L6.837.053a.715.715,0,0,1,0,1.005.7.7,0,0,1-1,0L4.226-.572V10.572L5.842,8.942a.7.7,0,0,1,1,0,.716.716,0,0,1,0,1.006L4.02,12.792h0c-.016.016-.033.031-.051.047l-.025.019-.03.023-.031.019c-.01.005-.019.012-.029.016a.345.345,0,0,1-.031.016l-.031.014-.032.011-.033.013-.032.008-.035.008-.037.006-.031,0c-.023,0-.047,0-.07,0S3.475,13,3.452,13Zm5.754-.83a1.084,1.084,0,1,1,0-2.167h4.041a1.084,1.084,0,0,1,0,2.167Zm0-6A1.084,1.084,0,1,1,9.206,4h6.847a1.084,1.084,0,0,1,0,2.167Zm0-6A1.083,1.083,0,0,1,8.123-.916,1.084,1.084,0,0,1,9.206-2H19.917A1.083,1.083,0,0,1,21-.916,1.083,1.083,0,0,1,19.917.167Z" transform="translate(213.316 0.001)" fill="#78849e"/>
  </g>
</svg>
